<svg id="Livello_1" data-name="Livello 1" xmlns="http://www.w3.org/2000/svg" viewBox="0 0 55 55"><defs><style>.cls-1{fill:#fff;}</style></defs><title>Tavola disegno 2</title><polygon class="cls-1" points="32.17 49.09 30.57 49.09 30.57 34.88 24.43 34.88 24.43 49.09 22.83 49.09 22.83 33.29 32.17 33.29 32.17 49.09"/><polygon class="cls-1" points="54.07 27.74 27.5 7.2 0.93 27.74 -0.05 26.48 27.5 5.17 55.05 26.48 54.07 27.74"/><path class="cls-1" d="M47.63,49.82H7.37V26.71L27.5,11.15,47.63,26.71ZM9,48.23H46V27.5L27.5,13.17,9,27.5Z"/><path class="cls-1" d="M45.87,21.16l-6.52-4.71V7.63h6.52ZM41,15.63,44.27,18V9.23H41Z"/></svg>